
<svg width="56" height="56" viewBox="0 0 56 56" fill="none" xmlns="http://www.w3.org/2000/svg">
<g clip-path="url(#clip0_17_42)">
<path d="M28 4.7133C40.866 4.7133 51.3333 15.1806 51.3333 28.0466C51.3333 40.9126 40.866 51.38 28 51.38C15.134 51.38 4.66667 40.9126 4.66667 28.0466C4.66667 15.1806 15.134 4.7133 28 4.7133ZM28 0.0466309C12.537 0.0466309 0 12.5836 0 28.0466C0 43.5096 12.537 56.0466 28 56.0466C43.463 56.0466 56 43.5096 56 28.0466C56 12.5836 43.463 0.0466309 28 0.0466309ZM28 29.33L14.0187 18.6666H41.979L28 29.33ZM28 32.3353L14 21.5343V37.3333H42V21.5343L28 32.3353Z" fill="white"/>
</g>
<defs>
<clipPath id="clip0_17_42">
<rect width="56" height="56" fill="white"/>
</clipPath>
</defs>
</svg>

