
<svg width="56" height="56" viewBox="0 0 56 56" fill="none" xmlns="http://www.w3.org/2000/svg">
<g clip-path="url(#clip0_17_44)">
<path d="M28 4.66667C40.866 4.66667 51.3333 15.134 51.3333 28C51.3333 40.866 40.866 51.3333 28 51.3333C15.134 51.3333 4.66667 40.866 4.66667 28C4.66667 15.134 15.134 4.66667 28 4.66667ZM28 0C12.537 0 0 12.537 0 28C0 43.463 12.537 56 28 56C43.463 56 56 43.463 56 28C56 12.537 43.463 0 28 0ZM38.5 40.3923L34.3933 32.466L31.9853 33.6443C29.372 34.9113 24.052 24.521 26.607 23.1513L29.0383 21.9543L24.962 14L22.505 15.2133C14.1027 19.593 27.4447 45.5257 36.0383 41.5987L38.5 40.3923Z" fill="white"/>
</g>
<defs>
<clipPath id="clip0_17_44">
<rect width="56" height="56" fill="white"/>
</clipPath>
</defs>
</svg>

