
<svg width="56" height="56" viewBox="0 0 56 56" fill="none" xmlns="http://www.w3.org/2000/svg">
<g clip-path="url(#clip0_17_37)">
<path d="M28 4.66667C40.866 4.66667 51.3333 15.134 51.3333 28C51.3333 40.866 40.866 51.3333 28 51.3333C15.134 51.3333 4.66667 40.866 4.66667 28C4.66667 15.134 15.134 4.66667 28 4.66667ZM28 0C12.537 0 0 12.537 0 28C0 43.463 12.537 56 28 56C43.463 56 56 43.463 56 28C56 12.537 43.463 0 28 0ZM14.0677 42L16.037 34.811C14.8237 32.7063 14.1843 30.3193 14.1843 27.874C14.1867 20.223 20.4097 14 28.0583 14C31.7707 14.0023 35.2543 15.4467 37.8723 18.0693C40.4927 20.692 41.9347 24.178 41.9323 27.8857C41.93 35.5367 35.7047 41.7597 28.0583 41.7597C25.7367 41.7597 23.4477 41.1763 21.4223 40.0703L14.0677 42ZM21.763 37.5597C23.7183 38.7193 25.585 39.417 28.0537 39.417C34.4097 39.417 39.5873 34.244 39.5897 27.8857C39.592 21.5133 34.4377 16.3473 28.063 16.345C21.7023 16.345 16.5293 21.518 16.527 27.8763C16.527 30.471 17.2877 32.417 18.564 34.4493L17.3997 38.7053L21.763 37.5597ZM35.049 31.185C34.9627 31.0403 34.7317 30.954 34.384 30.779C34.0363 30.6063 32.333 29.7663 32.0157 29.652C31.6983 29.5353 31.4673 29.4793 31.2363 29.8247C31.0053 30.1723 30.3403 30.9517 30.1397 31.185C29.9367 31.416 29.736 31.4463 29.3883 31.2713C29.0407 31.0987 27.9253 30.7323 26.6 29.5517C25.5687 28.6323 24.8733 27.496 24.6703 27.1507C24.4673 26.803 24.6493 26.6163 24.822 26.4437L25.3423 25.837L25.69 25.2583C25.8067 25.0273 25.7483 24.8243 25.662 24.6517L24.5933 22.078C24.311 21.4013 24.0263 21.4947 23.814 21.483L23.1467 21.4667C22.9157 21.4667 22.54 21.553 22.2227 21.9007C21.9053 22.2483 21.0093 23.086 21.0093 24.794C21.0093 26.4997 22.2507 28.1493 22.4257 28.3803C22.5983 28.6113 24.871 32.1137 28.3477 33.614C29.1737 33.971 29.82 34.1857 30.324 34.3443C31.1547 34.608 31.9107 34.5707 32.508 34.482C33.173 34.3817 34.559 33.6443 34.8483 32.8347C35.1353 32.0227 35.1353 31.3297 35.049 31.185Z" fill="white"/>
</g>
<defs>
<clipPath id="clip0_17_37">
<rect width="56" height="56" fill="white"/>
</clipPath>
</defs>
</svg>

