
<svg width="56" height="56" viewBox="0 0 56 56" fill="none" xmlns="http://www.w3.org/2000/svg">
<g clip-path="url(#clip0_17_35)">
<path d="M28 4.66667C40.866 4.66667 51.3333 15.134 51.3333 28C51.3333 40.866 40.866 51.3333 28 51.3333C15.134 51.3333 4.66667 40.866 4.66667 28C4.66667 15.134 15.134 4.66667 28 4.66667ZM28 0C12.537 0 0 12.537 0 28C0 43.463 12.537 56 28 56C43.463 56 56 43.463 56 28C56 12.537 43.463 0 28 0ZM28 14C20.2697 14 14 20.2673 14 28C14 34.1857 18.011 39.4333 23.576 41.2837C24.276 41.4143 24.5 40.9803 24.5 40.6093V38.003C20.6057 38.85 19.7937 36.3533 19.7937 36.3533C19.159 34.7363 18.2397 34.3047 18.2397 34.3047C16.9703 33.4343 18.3353 33.453 18.3353 33.453C19.7423 33.551 20.482 34.8973 20.482 34.8973C21.7303 37.037 23.7557 36.4187 24.556 36.0617C24.682 35.1563 25.0437 34.5403 25.445 34.1903C22.3347 33.8357 19.068 32.634 19.068 27.272C19.068 25.7437 19.614 24.4953 20.51 23.5153C20.3653 23.1583 19.8847 21.7327 20.6453 19.8053C20.6453 19.8053 21.8213 19.4297 24.4953 21.2403C25.613 20.93 26.81 20.776 28 20.769C29.19 20.7737 30.387 20.93 31.507 21.2403C34.181 19.4297 35.3523 19.8053 35.3523 19.8053C36.1153 21.7327 35.6347 23.1583 35.4923 23.5107C36.3907 24.4907 36.932 25.739 36.932 27.2673C36.932 32.6457 33.656 33.8287 30.5387 34.174C31.0427 34.608 31.5 35.4597 31.5 36.7663V40.607C31.5 40.9803 31.724 41.4167 32.4333 41.279C37.9937 39.4287 42 34.1833 42 28C42 20.2673 35.7303 14 28 14Z" fill="white"/>
</g>
<defs>
<clipPath id="clip0_17_35">
<rect width="56" height="56" fill="white"/>
</clipPath>
</defs>
</svg>

