
<svg width="56" height="56" viewBox="0 0 56 56" fill="none" xmlns="http://www.w3.org/2000/svg">
<g clip-path="url(#clip0_17_40)">
<path d="M28 4.66667C40.866 4.66667 51.3333 15.134 51.3333 28C51.3333 40.866 40.866 51.3333 28 51.3333C15.134 51.3333 4.66667 40.866 4.66667 28C4.66667 15.134 15.134 4.66667 28 4.66667ZM28 0C12.537 0 0 12.537 0 28C0 43.463 12.537 56 28 56C43.463 56 56 43.463 56 28C56 12.537 43.463 0 28 0ZM43.1667 20.482C42.1377 20.9393 41.0293 21.2473 39.8673 21.3873C41.055 20.6757 41.9627 19.551 42.3943 18.2093C41.2837 18.8673 40.054 19.3457 38.745 19.6023C37.6997 18.4847 36.204 17.787 34.5543 17.787C30.8443 17.787 28.119 21.2473 28.9567 24.8407C24.185 24.6003 19.95 22.3137 17.1173 18.8393C15.6123 21.42 16.338 24.7987 18.8953 26.509C17.955 26.4787 17.0707 26.2197 16.296 25.7903C16.233 28.4503 18.1417 30.94 20.9043 31.4953C20.097 31.7147 19.2103 31.766 18.3097 31.5933C19.04 33.8753 21.1657 35.5343 23.6763 35.581C21.2567 37.4757 18.2163 38.3227 15.1667 37.9633C17.71 39.5943 20.727 40.544 23.9703 40.544C34.6383 40.544 40.663 31.535 40.299 23.4547C41.4237 22.6473 42.3967 21.6347 43.1667 20.482Z" fill="white"/>
</g>
<defs>
<clipPath id="clip0_17_40">
<rect width="56" height="56" fill="white"/>
</clipPath>
</defs>
</svg>

